<svg width="1340" height="400" viewBox="0 0 1340 400" fill="none" xmlns="http://www.w3.org/2000/svg">
<g filter="url(#filter0_ddd_312_3862)">
<path d="M1.5777 39.3152C1.5777 25.8739 1.5777 19.1533 4.19354 14.0194C6.4945 9.50353 10.166 5.832 14.6819 3.53104C19.8158 0.915192 26.5364 0.915192 39.9777 0.915192H54.6877C68.129 0.915192 74.8496 0.915192 79.9835 3.53104C84.4994 5.832 88.1709 9.50353 90.4719 14.0194C93.0877 19.1533 93.0877 25.8739 93.0877 39.3152V54.0228C93.0877 67.464 93.0877 74.1847 90.4719 79.3185C88.1709 83.8344 84.4994 87.506 79.9835 89.8069C74.8496 92.4228 68.129 92.4228 54.6877 92.4228H39.9777C26.5364 92.4228 19.8158 92.4228 14.6819 89.8069C10.166 87.506 6.4945 83.8344 4.19354 79.3185C1.5777 74.1847 1.5777 67.464 1.5777 54.0228V39.3152Z" fill="url(#paint0_linear_312_3862)"/>
<path d="M2.5777 39.3152C2.5777 32.5781 2.57848 27.5854 2.90136 23.6335C3.22328 19.6933 3.86043 16.8759 5.08455 14.4734C7.28964 10.1457 10.8082 6.62713 15.1359 4.42204C17.5384 3.19792 20.3558 2.56078 24.296 2.23885C28.2479 1.91597 33.2406 1.91519 39.9777 1.91519H54.6877C61.4248 1.91519 66.4175 1.91597 70.3694 2.23885C74.3096 2.56078 77.127 3.19792 79.5295 4.42204C83.8572 6.62713 87.3758 10.1457 89.5808 14.4734C90.805 16.8759 91.4421 19.6933 91.764 23.6335C92.0869 27.5854 92.0877 32.5781 92.0877 39.3152V54.0228C92.0877 60.7599 92.0869 65.7526 91.764 69.7045C91.4421 73.6447 90.805 76.4621 89.5808 78.8646C87.3758 83.1923 83.8572 86.7108 79.5295 88.9159C77.127 90.14 74.3096 90.7772 70.3694 91.0991C66.4175 91.422 61.4248 91.4228 54.6877 91.4228H39.9777C33.2406 91.4228 28.2479 91.422 24.296 91.0991C20.3558 90.7772 17.5384 90.14 15.1359 88.9159C10.8082 86.7108 7.28964 83.1923 5.08455 78.8646C3.86043 76.4621 3.22328 73.6447 2.90136 69.7045C2.57848 65.7526 2.5777 60.7599 2.5777 54.0228V39.3152Z" stroke="url(#paint1_linear_312_3862)" stroke-width="2"/>
<path fill-rule="evenodd" clip-rule="evenodd" d="M24.0941 73.1808H70.5713V53.703H58.9633C57.9016 53.703 57.0409 52.8423 57.0409 51.7806V48.1038C57.0409 47.0421 57.9016 46.1814 58.9633 46.1814H70.5713V20.1572H63.2311V26.7004H51.0027V20.1572H43.6626V26.7004H31.4342V20.1572H24.0941V46.1814H35.702C36.7637 46.1814 37.6244 47.0421 37.6244 48.1038V51.7806C37.6244 52.8423 36.7637 53.703 35.702 53.703H24.0941V73.1808ZM31.4342 34.0405H63.2311V38.8412H58.9633C53.8478 38.8412 49.7008 42.9882 49.7008 48.1038V51.7806C49.7008 56.8962 53.8478 61.0432 58.9633 61.0432H63.2311V65.8406H31.4342V61.0432H35.702C40.8176 61.0432 44.9646 56.8962 44.9646 51.7806V48.1038C44.9646 42.9882 40.8176 38.8412 35.702 38.8412H31.4342V34.0405Z" fill="#5EEAD4"/>
</g>
<path d="M159.777 62.5668H172.048V73.1807H125.088V62.5668H137.358C140.672 62.5668 143.358 59.8805 143.358 56.5668V36.9468C143.358 33.633 140.672 30.9468 137.358 30.9468H125.088V20.1302H136.3H147.624H160.836H172.048V30.9468H159.777C156.464 30.9468 153.777 33.633 153.777 36.9468V56.5668C153.777 59.8805 156.464 62.5668 159.777 62.5668Z" fill="#111827"/>
<path d="M201.628 73.2073H180.048V20.1301H201.767C217.481 20.1301 226.211 27.2537 226.211 46.5291C226.211 65.3854 217.97 73.2772 201.628 73.2073ZM190.454 61.9188C190.454 63.0234 191.349 63.9188 192.454 63.9188H200.161C209.869 63.9188 215.107 60.1476 215.107 46.6687C215.107 33.9582 210.497 29.4187 200.161 29.4187H192.454C191.349 29.4187 190.454 30.3141 190.454 31.4187V61.9188Z" fill="black"/>
<path d="M244.604 60.8713C244.604 61.9758 245.5 62.8713 246.604 62.8713H273.028V73.2073H234.268V20.1301H271.841V30.4662H246.604C245.5 30.4662 244.604 31.3617 244.604 32.4662V39.1515C244.604 40.2561 245.5 41.1515 246.604 41.1515H269.397V50.7892H246.604C245.5 50.7892 244.604 51.6846 244.604 52.7892V60.8713Z" fill="black"/>
<path d="M281.122 73.2073V20.1301H291.179L312.101 53.2458C312.636 54.093 313.947 53.7138 313.947 52.7117V20.1301H324.422V73.2073H314.016L293.368 41.2731C292.827 40.4362 291.528 40.8194 291.528 41.8161V73.2073H281.122Z" fill="black"/>
<defs>
<filter id="filter0_ddd_312_3862" x="0.0037334" y="0.0157834" width="94.6579" height="96.6792" filterUnits="userSpaceOnUse" color-interpolation-filters="sRGB">
<feFlood flood-opacity="0" result="BackgroundImageFix"/>
<feColorMatrix in="SourceAlpha" type="matrix" values="0 0 0 0 0 0 0 0 0 0 0 0 0 0 0 0 0 0 127 0" result="hardAlpha"/>
<feMorphology radius="1.34911" operator="erode" in="SourceAlpha" result="effect1_dropShadow_312_3862"/>
<feOffset dy="2.69822"/>
<feGaussianBlur stdDeviation="1.46154"/>
<feComposite in2="hardAlpha" operator="out"/>
<feColorMatrix type="matrix" values="0 0 0 0 0 0 0 0 0 0 0 0 0 0 0 0 0 0 0.25 0"/>
<feBlend mode="normal" in2="BackgroundImageFix" result="effect1_dropShadow_312_3862"/>
<feColorMatrix in="SourceAlpha" type="matrix" values="0 0 0 0 0 0 0 0 0 0 0 0 0 0 0 0 0 0 127 0" result="hardAlpha"/>
<feMorphology radius="0.674556" operator="dilate" in="SourceAlpha" result="effect2_dropShadow_312_3862"/>
<feOffset/>
<feGaussianBlur stdDeviation="0.112426"/>
<feComposite in2="hardAlpha" operator="out"/>
<feColorMatrix type="matrix" values="0 0 0 0 0 0 0 0 0 0 0 0 0 0 0 0 0 0 0.05 0"/>
<feBlend mode="normal" in2="effect1_dropShadow_312_3862" result="effect2_dropShadow_312_3862"/>
<feColorMatrix in="SourceAlpha" type="matrix" values="0 0 0 0 0 0 0 0 0 0 0 0 0 0 0 0 0 0 127 0" result="hardAlpha"/>
<feMorphology radius="0.224852" operator="dilate" in="SourceAlpha" result="effect3_dropShadow_312_3862"/>
<feOffset/>
<feGaussianBlur stdDeviation="0.112426"/>
<feComposite in2="hardAlpha" operator="out"/>
<feColorMatrix type="matrix" values="0 0 0 0 0 0 0 0 0 0 0 0 0 0 0 0 0 0 0.07 0"/>
<feBlend mode="normal" in2="effect2_dropShadow_312_3862" result="effect3_dropShadow_312_3862"/>
<feBlend mode="normal" in="SourceGraphic" in2="effect3_dropShadow_312_3862" result="shape"/>
</filter>
<linearGradient id="paint0_linear_312_3862" x1="47.3327" y1="0.915192" x2="47.3327" y2="92.4228" gradientUnits="userSpaceOnUse">
<stop stop-color="#181B26"/>
<stop offset="1" stop-color="#191C27"/>
</linearGradient>
<linearGradient id="paint1_linear_312_3862" x1="47.3327" y1="0.915192" x2="47.3327" y2="92.4228" gradientUnits="userSpaceOnUse">
<stop stop-color="#39405F"/>
<stop offset="1" stop-color="#0D1539"/>
</linearGradient>
</defs>
</svg>
